<svg xmlns="http://www.w3.org/2000/svg" width="960" height="540" viewBox="0 0 960 540">
      <defs>
        <linearGradient id="g" x1="0" y1="0" x2="1" y2="1">
          <stop stop-color="#5a3424" offset="0"/>
          <stop stop-color="#d9aa65" offset="1"/>
        </linearGradient>
        <radialGradient id="r" cx=".28" cy=".16" r=".72">
          <stop stop-color="rgba(255,255,255,.45)" offset="0"/>
          <stop stop-color="rgba(255,255,255,0)" offset="1"/>
        </radialGradient>
      </defs>
      <rect width="960" height="540" fill="url(#g)"/>
      <rect width="960" height="540" fill="url(#r)"/>
      <circle cx="820" cy="70" r="190" fill="rgba(255,255,255,.10)"/>
      <circle cx="90" cy="470" r="210" fill="rgba(0,0,0,.12)"/>
      
        <ellipse cx="520" cy="290" rx="180" ry="52" fill="rgba(255,255,255,.22)"/>
        <rect x="360" y="205" width="260" height="170" rx="42" fill="rgba(255,255,255,.86)"/>
        <path d="M620 245 C710 235 710 345 620 335" fill="none" stroke="rgba(255,255,255,.75)" stroke-width="26" stroke-linecap="round"/>
        <ellipse cx="490" cy="205" rx="125" ry="34" fill="#6b3a24"/>
        <path d="M430 150 C390 100 460 92 420 42" stroke="rgba(255,255,255,.58)" stroke-width="14" fill="none" stroke-linecap="round"/>
        <path d="M500 150 C460 100 530 92 490 42" stroke="rgba(255,255,255,.48)" stroke-width="14" fill="none" stroke-linecap="round"/>
        
      <text x="70" y="410" font-family="Arial, sans-serif" font-size="56" font-weight="800" fill="white">Signature Latte</text>
      <text x="74" y="462" font-family="Arial, sans-serif" font-size="25" font-weight="600" fill="rgba(255,255,255,.78)">Caramel, milk, espresso</text>
    </svg>